<svg width="59" height="19" viewBox="0 0 59 19" fill="none" xmlns="http://www.w3.org/2000/svg">
<path d="M2.384 18.192C1.888 18.192 1.504 18.056 1.232 17.784C0.976 17.496 0.848 17.104 0.848 16.608V2.64C0.848 2.128 0.984 1.744 1.256 1.488C1.528 1.216 1.912 1.08 2.408 1.08H8.192C10.048 1.08 11.48 1.544 12.488 2.472C13.496 3.4 14 4.696 14 6.36C14 8.024 13.496 9.328 12.488 10.272C11.48 11.2 10.048 11.664 8.192 11.664H3.92V16.608C3.92 17.104 3.792 17.496 3.536 17.784C3.28 18.056 2.896 18.192 2.384 18.192ZM3.92 9.24H7.712C8.8 9.24 9.624 9 10.184 8.52C10.744 8.024 11.024 7.304 11.024 6.36C11.024 5.416 10.744 4.704 10.184 4.224C9.624 3.744 8.8 3.504 7.712 3.504H3.92V9.24ZM20.2243 18.24C18.8963 18.24 17.8963 17.864 17.2243 17.112C16.5523 16.344 16.2163 15.224 16.2163 13.752V2.4C16.2163 1.904 16.3443 1.528 16.6003 1.272C16.8563 1.016 17.2243 0.887999 17.7043 0.887999C18.1843 0.887999 18.5523 1.016 18.8083 1.272C19.0803 1.528 19.2163 1.904 19.2163 2.4V13.608C19.2163 14.344 19.3683 14.888 19.6723 15.24C19.9923 15.592 20.4403 15.768 21.0163 15.768C21.1443 15.768 21.2643 15.768 21.3763 15.768C21.4883 15.752 21.6003 15.736 21.7122 15.72C21.9363 15.688 22.0883 15.752 22.1683 15.912C22.2483 16.056 22.2883 16.36 22.2883 16.824C22.2883 17.224 22.2083 17.536 22.0483 17.76C21.8883 17.984 21.6243 18.12 21.2563 18.168C21.0963 18.184 20.9283 18.2 20.7523 18.216C20.5763 18.232 20.4003 18.24 20.2243 18.24ZM27.7443 18.24C26.8963 18.24 26.1363 18.08 25.4643 17.76C24.8083 17.424 24.2883 16.976 23.9043 16.416C23.5363 15.856 23.3523 15.224 23.3523 14.52C23.3523 13.656 23.5763 12.976 24.0243 12.48C24.4723 11.968 25.2003 11.6 26.2083 11.376C27.2163 11.152 28.5683 11.04 30.2643 11.04H31.4643V12.768H30.2883C29.2963 12.768 28.5043 12.816 27.9123 12.912C27.3203 13.008 26.8963 13.176 26.6403 13.416C26.4003 13.64 26.2803 13.96 26.2803 14.376C26.2803 14.904 26.4643 15.336 26.8323 15.672C27.2003 16.008 27.7123 16.176 28.3683 16.176C28.8963 16.176 29.3603 16.056 29.7603 15.816C30.1763 15.56 30.5043 15.216 30.7443 14.784C30.9843 14.352 31.1043 13.856 31.1043 13.296V10.536C31.1043 9.736 30.9283 9.16 30.5763 8.808C30.2243 8.456 29.6323 8.28 28.8003 8.28C28.3363 8.28 27.8323 8.336 27.2883 8.448C26.7603 8.56 26.2003 8.752 25.6083 9.024C25.3043 9.168 25.0323 9.208 24.7923 9.144C24.5683 9.08 24.3923 8.952 24.2643 8.76C24.1363 8.552 24.0723 8.328 24.0723 8.088C24.0723 7.848 24.1363 7.616 24.2643 7.392C24.3923 7.152 24.6083 6.976 24.9123 6.864C25.6483 6.56 26.3523 6.344 27.0243 6.216C27.7123 6.088 28.3363 6.024 28.8963 6.024C30.0483 6.024 30.9923 6.2 31.7283 6.552C32.4803 6.904 33.0403 7.44 33.4083 8.16C33.7763 8.864 33.9603 9.776 33.9603 10.896V16.656C33.9603 17.152 33.8403 17.536 33.6003 17.808C33.3603 18.064 33.0163 18.192 32.5683 18.192C32.1203 18.192 31.7683 18.064 31.5123 17.808C31.2723 17.536 31.1523 17.152 31.1523 16.656V15.504H31.3443C31.2323 16.064 31.0083 16.552 30.6723 16.968C30.3523 17.368 29.9443 17.68 29.4483 17.904C28.9523 18.128 28.3843 18.24 27.7443 18.24ZM38.4933 18.192C38.0133 18.192 37.6453 18.064 37.3893 17.808C37.1333 17.536 37.0053 17.152 37.0053 16.656V7.584C37.0053 7.088 37.1333 6.712 37.3893 6.456C37.6453 6.2 38.0053 6.072 38.4693 6.072C38.9333 6.072 39.2933 6.2 39.5493 6.456C39.8053 6.712 39.9333 7.088 39.9333 7.584V9.216L39.6693 8.616C40.0213 7.768 40.5653 7.128 41.3013 6.696C42.0533 6.248 42.9013 6.024 43.8453 6.024C44.7893 6.024 45.5653 6.2 46.1733 6.552C46.7813 6.904 47.2373 7.44 47.5413 8.16C47.8453 8.864 47.9973 9.76 47.9973 10.848V16.656C47.9973 17.152 47.8693 17.536 47.6133 17.808C47.3573 18.064 46.9893 18.192 46.5093 18.192C46.0293 18.192 45.6533 18.064 45.3813 17.808C45.1253 17.536 44.9973 17.152 44.9973 16.656V10.992C44.9973 10.08 44.8213 9.416 44.4693 9C44.1333 8.584 43.6053 8.376 42.8853 8.376C42.0053 8.376 41.3013 8.656 40.7733 9.216C40.2613 9.76 40.0053 10.488 40.0053 11.4V16.656C40.0053 17.68 39.5013 18.192 38.4933 18.192ZM56.4204 18.24C55.3804 18.24 54.5084 18.064 53.8044 17.712C53.1164 17.36 52.6044 16.848 52.2684 16.176C51.9324 15.488 51.7644 14.64 51.7644 13.632V8.52H50.5164C50.1324 8.52 49.8364 8.424 49.6284 8.232C49.4204 8.024 49.3164 7.744 49.3164 7.392C49.3164 7.024 49.4204 6.744 49.6284 6.552C49.8364 6.36 50.1324 6.264 50.5164 6.264H51.7644V4.08C51.7644 3.584 51.8924 3.208 52.1484 2.952C52.4204 2.696 52.7964 2.568 53.2764 2.568C53.7564 2.568 54.1244 2.696 54.3804 2.952C54.6364 3.208 54.7644 3.584 54.7644 4.08V6.264H57.3084C57.6924 6.264 57.9884 6.36 58.1964 6.552C58.4044 6.744 58.5084 7.024 58.5084 7.392C58.5084 7.744 58.4044 8.024 58.1964 8.232C57.9884 8.424 57.6924 8.52 57.3084 8.52H54.7644V13.464C54.7644 14.232 54.9324 14.808 55.2684 15.192C55.6044 15.576 56.1484 15.768 56.9004 15.768C57.1724 15.768 57.4124 15.744 57.6204 15.696C57.8284 15.648 58.0124 15.616 58.1724 15.6C58.3644 15.584 58.5244 15.648 58.6524 15.792C58.7804 15.92 58.8444 16.192 58.8444 16.608C58.8444 16.928 58.7884 17.216 58.6764 17.472C58.5804 17.712 58.3964 17.88 58.1244 17.976C57.9164 18.04 57.6444 18.096 57.3084 18.144C56.9724 18.208 56.6764 18.24 56.4204 18.24Z" fill="#1A1A1A"/>
</svg>
